<svg width="97" height="96" viewBox="0 0 97 96" fill="none" xmlns="http://www.w3.org/2000/svg">
<mask id="mask0_138_1524" style="mask-type:alpha" maskUnits="userSpaceOnUse" x="0" y="0" width="97" height="96">
<rect x="0.5" width="96" height="96" fill="#D9D9D9"/>
</mask>
<g mask="url(#mask0_138_1524)">
<path d="M32.7334 67.0768C33.7367 67.0768 34.5768 66.7374 35.2537 66.0587C35.9306 65.38 36.2691 64.5389 36.2691 63.5356C36.2691 62.5323 35.9297 61.6922 35.251 61.0153C34.5723 60.3384 33.7313 59.9999 32.728 59.9999C31.7247 59.9999 30.8845 60.3393 30.2076 61.018C29.5307 61.6967 29.1923 62.5377 29.1923 63.541C29.1923 64.5443 29.5316 65.3845 30.2103 66.0614C30.889 66.7383 31.7301 67.0768 32.7334 67.0768ZM32.7334 51.5383C33.7367 51.5383 34.5768 51.199 35.2537 50.5203C35.9306 49.8416 36.2691 49.0005 36.2691 47.9972C36.2691 46.9939 35.9297 46.1537 35.251 45.4768C34.5723 44.7999 33.7313 44.4615 32.728 44.4615C31.7247 44.4615 30.8845 44.8008 30.2076 45.4795C29.5307 46.1582 29.1923 46.9993 29.1923 48.0026C29.1923 49.0059 29.5316 49.8461 30.2103 50.523C30.889 51.1999 31.7301 51.5383 32.7334 51.5383ZM32.7334 35.9999C33.7367 35.9999 34.5768 35.6605 35.2537 34.9818C35.9306 34.3031 36.2691 33.4621 36.2691 32.4588C36.2691 31.4555 35.9297 30.6153 35.251 29.9384C34.5723 29.2615 33.7313 28.923 32.728 28.923C31.7247 28.923 30.8845 29.2624 30.2076 29.9411C29.5307 30.6198 29.1923 31.4609 29.1923 32.4642C29.1923 33.4675 29.5316 34.3076 30.2103 34.9845C30.889 35.6614 31.7301 35.9999 32.7334 35.9999ZM44.8845 66.5383H67.6537V60.5384H44.8845V66.5383ZM44.8845 50.9998H67.6537V45H44.8845V50.9998ZM44.8845 35.4614H67.6537V29.4615H44.8845V35.4614ZM21.7308 81.9998C19.7103 81.9998 18 81.2998 16.6 79.8998C15.2 78.4998 14.5 76.7895 14.5 74.769V21.2308C14.5 19.2103 15.2 17.5 16.6 16.1C18 14.7 19.7103 14 21.7308 14H75.269C77.2895 14 78.9998 14.7 80.3998 16.1C81.7998 17.5 82.4998 19.2103 82.4998 21.2308V74.769C82.4998 76.7895 81.7998 78.4998 80.3998 79.8998C78.9998 81.2998 77.2895 81.9998 75.269 81.9998H21.7308ZM21.7308 75.9999H75.269C75.5767 75.9999 75.8588 75.8717 76.1153 75.6153C76.3717 75.3588 76.4999 75.0767 76.4999 74.769V21.2308C76.4999 20.9231 76.3717 20.641 76.1153 20.3845C75.8588 20.1281 75.5767 19.9999 75.269 19.9999H21.7308C21.4231 19.9999 21.141 20.1281 20.8845 20.3845C20.6281 20.641 20.4999 20.9231 20.4999 21.2308V74.769C20.4999 75.0767 20.6281 75.3588 20.8845 75.6153C21.141 75.8717 21.4231 75.9999 21.7308 75.9999Z" fill="#E5E7EB"/>
</g>
</svg>
