<svg width="20" height="20" viewBox="0 0 20 20" fill="none" xmlns="http://www.w3.org/2000/svg">
<mask id="mask0_138_3358" style="mask-type:alpha" maskUnits="userSpaceOnUse" x="0" y="0" width="20" height="20">
<rect width="20" height="20" fill="#D9D9D9"/>
</mask>
<g mask="url(#mask0_138_3358)">
<path d="M5.68117 18.3332C5.2645 18.3332 4.90781 18.1848 4.61109 17.8881C4.31437 17.5914 4.16602 17.2347 4.16602 16.818V8.48469C4.16602 8.06802 4.31437 7.71133 4.61109 7.41461C4.90781 7.11789 5.2645 6.96953 5.68117 6.96953H7.95389V8.48469H5.68117V16.818H14.7721V8.48469H12.4993V6.96953H14.7721C15.1887 6.96953 15.5454 7.11789 15.8422 7.41461C16.1389 7.71133 16.2872 8.06802 16.2872 8.48469V16.818C16.2872 17.2347 16.1389 17.5914 15.8422 17.8881C15.5454 18.1848 15.1887 18.3332 14.7721 18.3332H5.68117ZM9.46905 13.0301V4.56423L8.25692 5.77635L7.19632 4.69681L10.2266 1.6665L13.2569 4.69681L12.1963 5.77635L10.9842 4.56423V13.0301H9.46905Z" fill="#6B7280"/>
</g>
</svg>
